# AST/ASF file generated using VICON BodyLanguage
# -----------------------------------------------
:version 1.10
:name VICON
:units
  mass 1.0
  length 0.45
  angle deg
:documentation
   .ast/.asf automatically generated from VICON data using
   VICON BodyBuilder and BodyLanguage model FoxedUp or BRILLIANT.MOD
:root
   order TX TY TZ RX RY RZ
   axis XYZ
   position 0 0 0  
   orientation 0 0 0 
:bonedata
  begin
     id 1 
     name lhipjoint
     direction 0.645893 -0.654526 0.392961 
     length 2.38111 
     axis 0 0 0  XYZ
  end
  begin
     id 2 
     name lfemur
     direction 0.34202 -0.939693 0  
     length 6.6822  
     axis 0 0 20  XYZ
    dof rx ry rz
    limits (-160.0 20.0)
           (-70.0 70.0)
           (-60.0 70.0)
  end
  begin
     id 3 
     name ltibia
     direction 0.34202 -0.939693 0   
     length 6.93904   
     axis 0 0 20   XYZ
    dof rx
    limits (-10.0 170.0)
  end
  begin
     id 4 
     name lfoot
     direction 0.0694967 -0.190941 0.979138   
     length 2.13616   
     axis -90 7.62852e-016 20   XYZ
    dof rx rz
    limits (-45.0 90.0)
           (-70.0 20.0)
  end
  begin
     id 5 
     name ltoes
     direction 1.535e-011 -4.2202e-011 1   
     length 1.07536   
     axis -90 7.62852e-016 20   XYZ
    dof rx
    limits (-90.0 20.0)
  end
  begin
     id 6 
     name rhipjoint
     direction -0.700219 -0.612087 0.367481   
     length 2.54621  
     axis 0 0 0  XYZ 
  end
  begin
     id 7 
     name rfemur
     direction -0.34202 -0.939693 0   
     length 6.55353   
     axis 0 0 -20   XYZ
    dof rx ry rz
    limits (-160.0 20.0)
           (-70.0 70.0)
           (-70.0 60.0)
  end
  begin
     id 8 
     name rtibia
     direction -0.34202 -0.939693 0   
     length 6.8736   
     axis 0 0 -20   XYZ
    dof rx
    limits (-10.0 170.0)
 end
 begin
     id 9 
     name rfoot
     direction -0.0679995 -0.186827 0.980037   
     length 2.1218  
     axis -90 -7.62852e-016 -20   XYZ
    dof rx rz
    limits (-45.0 90.0)
           (-20.0 70.0)
  end
  begin
     id 10 
     name rtoes
     direction -1.53589e-011 -4.21772e-011 1   
     length 1.06864   
     axis -90 -7.62852e-016 -20   XYZ
    dof rx
    limits (-90.0 20.0)
  end
  begin
     id 11 
     name lowerback
     direction -0.0416607 0.996347 -0.0745409   
     length 2.12205   
     axis 0 0 0   XYZ
    dof rx ry rz
    limits (-20.0 45.0)
           (-30.0 30.0)
           (-30.0 30.0)
  end
  begin
     id 12 
     name upperback
     direction -0.000153993 0.999276 -0.0380568   
     length 2.12759   
     axis 0 0 0   XYZ
    dof rx ry rz
    limits (-20.0 45.0)
           (-30.0 30.0)
           (-30.0 30.0)
  end
  begin
     id 13 
     name thorax
     direction 0.0187671 0.999821 -0.00241421   
     length 2.13704   
     axis 0 0 0   XYZ
    dof rx ry rz
    limits (-20.0 45.0)
           (-30.0 30.0)
           (-30.0 30.0)
  end
  begin
     id 14 
     name lowerneck
     direction 0.0268157 0.964865 0.261374   
     length 1.65253   
     axis 0 0 0   XYZ
    dof rx ry rz
    limits (-20.0 45.0)
           (-30.0 30.0)
           (-30.0 30.0)
  end
  begin
     id 15 
     name upperneck
     direction 0.00263774 0.939908 -0.341418   
     length 1.72375   
     axis 0 0 0   XYZ
    dof rx ry rz
    limits (-20.0 45.0)
           (-30.0 30.0)
           (-30.0 30.0)
  end
  begin
     id 16
     name head
     direction -0.00526001 0.989001 -0.147818  
     length 1.74878  
     axis 0 0 0   XYZ
    dof rx ry rz
    limits (-20.0 45.0)
           (-30.0 30.0)
           (-30.0 30.0)
  end
  begin
     id 17 
     name lclavicle
     direction 0.881214 0.461162 -0.103884  
     length 3.25108  
     axis 0 0 0   XYZ
    dof ry rz
    limits (-20.0 10.0)
           (0.0 20.0)
  end
  begin
     id 18 
     name lhumerus
     direction 1 -4.4899e-011 3.38092e-027   
     length 4.87408   
     axis 180 -30 -90   XYZ
    dof rx ry rz
    limits (-60.0 90.0)
           (-90.0 90.0)
           (-90.0 90.0)
  end
  begin
     id 19
     name lradius
     direction 1 -4.48931e-011 9.96288e-027   
     length 2.76729   
     axis 180 -30 -90   XYZ
    dof rx
    limits (-10.0 170.0)
  end
  begin
     id 20
     name lwrist
     direction 1 -4.4896e-011 1.50617e-026   
     length 1.38364   
     axis -9.31234e-015 90 90   XYZ
    dof ry
    limits (-180.0 0.0)
 end
  begin
     id 21 
     name lhand
     direction 1 -4.49038e-011 3.01286e-026   
     length 0.98922   
     axis -1.92217e-014 90 90   XYZ
    dof rx rz
    limits (-90.0 90.0)
           (-45.0 45.0)
  end
  begin
     id 22 
     name lfingers
     direction 1 -4.49051e-011 6.02588e-026   
     length 0.797535   
     axis -3.84436e-014 90 90   XYZ
    dof rx
    limits (0.0 90.0)
  end
  begin
     id 23
     name lthumb
     direction 0.707107 -6.34901e-011 0.707107   
     length 1.14511   
     axis -90 45 2.19363e-014   XYZ
    dof rx rz
    limits (-45.0 45.0)
           (-45.0 45.0)
  end
  begin
     id 24 
     name rclavicle
     direction -0.893894 0.441652 -0.0767889   
     length 3.29361  
     axis 0 0 0   XYZ 
    dof ry rz
    limits (-10.0 20.0)
           (-20.0 0.0)
  end
  begin
     id 25 
     name rhumerus
     direction -1 -4.48945e-011 8.0491e-028  
     length 4.71404   
     axis 180 30 90   XYZ
    dof rx ry rz
    limits (-90.0 60.0)
           (-90.0 90.0)
           (-90.0 90.0)
  end
  begin
     id 26 
     name rradius
     direction -1 -4.48986e-011 9.27795e-027   
     length 2.83468   
     axis 180 30 90   XYZ
    dof rx
    limits (-10.0 170.0)
  end
  begin
     id 27 
     name rwrist
     direction -1 -4.49029e-011 1.5064e-026   
     length 1.41734   
     axis -9.31234e-015 -90 -90   XYZ
    dof ry
    limits (-180.0 0.0)
  end
  begin
     id 28
     name rhand
     direction -1 -4.48857e-011 3.01165e-026   
     length 0.868195   
     axis -1.92217e-014 -90 -90   XYZ
    dof rx rz
    limits (-90.0 90.0)
           (-45.0 45.0)
  end
  begin
     id 29
     name rfingers
     direction -1 -4.49048e-011 6.02585e-026   
     length 0.699961   
     axis -3.84436e-014 -90 -90   XYZ
    dof rx
    limits (0.0 90.0)
  end
  begin
     id 30
     name rthumb
     direction -0.707107 -6.34854e-011 0.707107   
     length 1.00501   
     axis -90 -45 -2.19363e-014   XYZ
    dof rx rz
    limits (-45.0 45.0)
           (-45.0 45.0)
  end
:hierarchy
  begin
    root lhipjoint rhipjoint lowerback
    lhipjoint lfemur
    lfemur ltibia
    ltibia lfoot
    lfoot ltoes
    rhipjoint rfemur
    rfemur rtibia
    rtibia rfoot
    rfoot rtoes
    lowerback upperback
    upperback thorax
    thorax lowerneck lclavicle rclavicle
    lowerneck upperneck
    upperneck head
    lclavicle lhumerus
    lhumerus lradius
    lradius lwrist
    lwrist lhand lthumb
    lhand lfingers
    rclavicle rhumerus
    rhumerus rradius
    rradius rwrist
    rwrist rhand rthumb
    rhand rfingers
  end

#!OML:ASF H:\ManfredObstacles\Project 1\Capture day 2\Session 1\male.ASF
:FULLY-SPECIFIED
:DEGREES
156
root 2.11775 7.5942 19.8187 -152.421 -6.64321 173.033
lowerback 44.8483 1.24225 1.05486
upperback 16.7107 -4.5437 -4.28672
thorax -2.46709 -4.00562 -3.26811
lowerneck -33.3211 -0.215891 2.4652
upperneck 17.2487 -3.61768 7.24877
head 11.1117 -0.549762 1.63669
rclavicle -4.45278e-014 -3.21286e-014
rhumerus 60.8393 -6.79359 -73.3756
rradius 37.1931
rwrist 24.9413
rhand -11.9039 -9.43437
rfingers 7.12502
rthumb 14.1496 -38.9325
lclavicle -4.45278e-014 -3.21286e-014
lhumerus 56.1169 -4.71488 49.6085
lradius 54.9445
lwrist -26.9763
lhand -14.16 12.0306
lfingers 7.12502
lthumb 11.9748 41.668
rfemur -101.237 -4.70093 30.8342
rtibia 149.81
rfoot -40.2647 -29.244
rtoes -29.8862
lfemur -96.4222 15.5064 -27.7747
ltibia 149.485
lfoot -19.0286 28.4386
ltoes -11.592
157
root 2.12809 7.61886 19.6927 -151.992 -6.66303 172.835
lowerback 44.5671 1.09075 1.01701
upperback 16.6392 -4.67696 -4.38281
thorax -2.495 -4.04395 -3.30378
lowerneck -33.2367 -0.127988 2.50871
upperneck 17.1343 -3.52551 7.29511
head 11.053 -0.508043 1.66148
rclavicle -9.14409e-015 7.25564e-015
rhumerus 61.0733 -6.38755 -74.0229
rradius 36.3738
rwrist 25.5882
rhand -12.2833 -9.36296
rfingers 7.12502
rthumb 13.784 -38.8863
lclavicle -9.14409e-015 7.25564e-015
lhumerus 56.9563 -4.36992 49.3059
lradius 53.9015
lwrist -26.9132
lhand -13.8331 11.9912
lfingers 7.12502
lthumb 12.29 41.61
rfemur -100.839 -4.93677 31.004
rtibia 149.965
rfoot -39.8619 -29.4608
rtoes -30.4095
lfemur -96.1084 15.3657 -27.6241
ltibia 149.425
lfoot -18.432 27.8278
ltoes -11.4879
158
root 2.13894 7.64314 19.5627 -151.543 -6.68694 172.638
lowerback 44.2855 0.942637 0.960523
upperback 16.5589 -4.80999 -4.46487
thorax -2.52963 -4.08321 -3.31496
lowerneck -33.1853 -0.0298694 2.5774
upperneck 17.0205 -3.41885 7.29164
head 10.9974 -0.463736 1.66659
rclavicle -2.46493e-014 -5.39949e-014
rhumerus 61.1056 -5.86598 -74.4966
rradius 35.7042
rwrist 26.1573
rhand -12.9919 -9.35484
rfingers 7.12502
rthumb 13.101 -38.9233
lclavicle -2.46493e-014 -5.39949e-014
lhumerus 57.7058 -4.02976 48.9914
lradius 52.9522
lwrist -26.879
lhand -13.5731 12.0071
lfingers 7.12502
lthumb 12.5407 41.6108
rfemur -100.44 -5.16164 31.1987
rtibia 150.109
rfoot -39.4002 -29.7188
rtoes -30.8782
lfemur -95.7815 15.2218 -27.4605
ltibia 149.352
lfoot -17.867 27.1927
ltoes -11.3912
159
root 2.15038 7.66716 19.4287 -151.081 -6.71367 172.442
lowerback 43.9695 0.779346 0.911892
upperback 16.5125 -4.97061 -4.56596
thorax -2.52085 -4.13732 -3.34375
lowerneck -33.2071 0.0863056 2.66518
upperneck 16.8985 -3.29634 7.26698
head 10.9492 -0.413175 1.6641
rclavicle 2.5842e-015 -1.85118e-014
rhumerus 61.0009 -5.23843 -74.8871
rradius 35.1463
rwrist 26.6585
rhand -14.1684 -9.4385
rfingers 7.12502
rthumb 11.9667 -39.0764
lclavicle 2.5842e-015 -1.85118e-014
lhumerus 58.4002 -3.63638 48.6182
lradius 52.0898
lwrist -26.9192
lhand -13.3464 12.0417
lfingers 7.12502
lthumb 12.7593 41.6319
rfemur -100.028 -5.37466 31.4183
rtibia 150.243
rfoot -38.9078 -30.0064
rtoes -31.2721
lfemur -95.4426 15.0721 -27.2931
ltibia 149.262
lfoot -17.3091 26.5377
ltoes -11.2781
160
root 2.16236 7.6912 19.2906 -150.599 -6.74326 172.236
lowerback 43.6684 0.675948 0.829952
upperback 16.4423 -5.05603 -4.60516
thorax -2.52832 -4.15753 -3.31759
lowerneck -33.2272 0.173655 2.80674
upperneck 16.7833 -3.2067 7.14354
head 10.9006 -0.38497 1.61064
rclavicle -1.25234e-014 8.94531e-015
rhumerus 60.6707 -4.65992 -75.1278
rradius 34.6696
rwrist 27.2612
rhand -15.8446 -9.66917
rfingers 7.12502
rthumb 10.3501 -39.3945
lclavicle -1.25234e-014 8.94531e-015
lhumerus 59.0753 -3.35222 48.3181
lradius 51.3218
lwrist -26.9605
lhand -13.1675 12.1044
lfingers 7.12502
lthumb 12.9318 41.6837
rfemur -99.6083 -5.58281 31.6496
rtibia 150.366
rfoot -38.357 -30.3258
rtoes -31.5293
lfemur -95.0855 14.9097 -27.1327
ltibia 149.15
lfoot -16.7283 25.8759
ltoes -11.1037
161
root 2.17519 7.71554 19.1486 -150.106 -6.77685 172.018
lowerback 43.4131 0.674139 0.779243
upperback 16.3716 -4.99578 -4.59267
thorax -2.53357 -4.10712 -3.30732
lowerneck -33.4031 0.184498 3.09814
upperneck 16.7164 -3.26495 6.89357
head 10.8938 -0.423723 1.46177
rclavicle 2.62396e-014 -4.96962e-016
rhumerus 60.1115 -4.37927 -75.3226
rradius 34.2547
rwrist 28.0707
rhand -18.058 -10.0094
rfingers 7.12502
rthumb 8.21439 -39.8297
lclavicle 2.62396e-014 -4.96962e-016
lhumerus 59.9262 -3.29689 48.0781
lradius 50.6269
lwrist -27.014
lhand -13.025 12.1826
lfingers 7.12502
lthumb 13.0691 41.7531
rfemur -99.1683 -5.79235 31.8867
rtibia 150.481
rfoot -37.8038 -30.6154
rtoes -31.6056
lfemur -94.6947 14.7352 -26.9736
ltibia 149.008
lfoot -16.1034 25.2181
ltoes -10.8074
162
root 2.18911 7.74109 19.0031 -149.613 -6.82299 171.77
lowerback 42.8941 0.906595 0.609293
upperback 16.4849 -4.71063 -4.34782
thorax -2.21762 -3.97893 -3.10203
lowerneck -33.4376 0.0845151 3.38055
upperneck 16.3982 -3.3918 6.49203
head 10.7651 -0.524786 1.24243
rclavicle 1.30204e-014 -4.50744e-014
rhumerus 59.5568 -4.44329 -75.3215
rradius 33.888
rwrist 29.1346
rhand -20.6954 -10.4458
rfingers 7.12502
rthumb 5.66844 -40.35
lclavicle 1.30204e-014 -4.50744e-014
lhumerus 61.0808 -3.3192 48.1803
lradius 49.9581
lwrist -27.1795
lhand -12.9492 12.2506
lfingers 7.12502
lthumb 13.1421 41.8165
rfemur -98.6809 -6.02808 32.1089
rtibia 150.584
rfoot -37.2475 -30.8864
rtoes -31.5495
lfemur -94.2598 14.5292 -26.8367
ltibia 148.817
lfoot -15.4067 24.5582
ltoes -10.4653
163
root 2.20451 7.76807 18.8536 -149.112 -6.8843 171.498
lowerback 42.4786 1.1364 0.422456
upperback 16.5127 -4.41066 -4.09704
thorax -2.02445 -3.83741 -2.87437
lowerneck -33.4181 -0.0375758 3.68667
upperneck 16.1478 -3.55657 6.07819
head 10.6526 -0.640848 1.00991
rclavicle 4.15739e-014 1.43333e-014
rhumerus 58.7858 -4.59562 -75.4979
rradius 33.5671
rwrist 30.4737
rhand -23.5658 -10.9922
rfingers 7.12502
rthumb 2.89667 -40.9523
lclavicle 4.15739e-014 1.43333e-014
lhumerus 62.1354 -3.46801 48.3235
lradius 49.3431
lwrist -27.3521
lhand -12.9284 12.3191
lfingers 7.12502
lthumb 13.1622 41.8836
rfemur -98.1622 -6.28804 32.3236
rtibia 150.667
rfoot -36.6612 -31.1488
rtoes -31.3619
lfemur -93.7912 14.2938 -26.7119
ltibia 148.574
lfoot -14.6536 23.907
ltoes -10.0696
164
root 2.22075 7.79587 18.7003 -148.596 -6.96683 171.199
lowerback 42.0701 1.35633 0.207863
upperback 16.522 -4.12443 -3.82752
thorax -1.85411 -3.70295 -2.60387
lowerneck -33.3546 -0.178664 3.92435
upperneck 15.9247 -3.72769 5.71413
head 10.5452 -0.757413 0.806815
rclavicle 1.26228e-014 -1.00945e-014
rhumerus 57.9352 -4.79946 -75.8441
rradius 33.3401
rwrist 31.8809
rhand -26.4051 -11.5818
rfingers 7.12502
rthumb 0.154441 -41.5614
lclavicle 1.26228e-014 -1.00945e-014
lhumerus 63.1415 -3.62295 48.5237
lradius 48.7262
lwrist -27.5948
lhand -12.9775 12.3648
lfingers 7.12502
lthumb 13.1149 41.9324
rfemur -97.6269 -6.58242 32.5248
rtibia 150.736
rfoot -36.0237 -31.416
rtoes -31.0321
lfemur -93.2955 14.0163 -26.6075
ltibia 148.283
lfoot -13.8606 23.2719
ltoes -9.70775
165
root 2.23797 7.82485 18.5429 -148.044 -7.06989 170.878
lowerback 41.6829 1.3691 0.0247708
upperback 16.4713 -4.08066 -3.72353
thorax -1.7852 -3.67119 -2.42824
lowerneck -33.1815 -0.209663 4.08811
upperneck 15.7608 -3.76457 5.51855
head 10.4479 -0.797554 0.701768
rclavicle -2.70347e-014 -5.19325e-014
rhumerus 57.0325 -4.71987 -76.6416
rradius 33.2755
rwrist 33.187
rhand -28.9483 -12.1468
rfingers 7.12502
rthumb -2.30179 -42.1141
lclavicle -2.70347e-014 -5.19325e-014
lhumerus 63.8174 -3.57173 48.5031
lradius 48.104
lwrist -27.9149
lhand -13.1009 12.4044
lfingers 7.12502
lthumb 12.996 41.9796
rfemur -97.112 -6.90567 32.7164
rtibia 150.787
rfoot -35.323 -31.6711
rtoes -30.5662
lfemur -92.8041 13.698 -26.5255
ltibia 147.943
lfoot -13.0345 22.648
ltoes -9.32528
166
root 2.25553 7.85401 18.3815 -147.439 -7.19522 170.54
lowerback 41.3784 1.23129 -0.117505
upperback 16.3137 -4.18776 -3.73156
thorax -1.87524 -3.69491 -2.32586
lowerneck -32.998 -0.181892 4.21665
upperneck 15.7125 -3.7426 5.42567
head 10.3958 -0.795854 0.650936
rclavicle -3.16068e-014 -2.52953e-014
rhumerus 55.9869 -4.48385 -77.6976
rradius 33.4368
rwrist 34.216
rhand -31.1312 -12.5549
rfingers 7.12502
rthumb -4.40979 -42.489
lclavicle -3.16068e-014 -2.52953e-014
lhumerus 64.2547 -3.45542 48.3358
lradius 47.466
lwrist -28.2624
lhand -13.2698 12.4556
lfingers 7.12502
lthumb 12.8331 42.0412
rfemur -96.6569 -7.25392 32.9041
rtibia 150.829
rfoot -34.5348 -31.9216
rtoes -29.983
lfemur -92.336 13.3359 -26.4645
ltibia 147.568
lfoot -12.1929 22.0461
ltoes -8.91109
167
root 2.27353 7.88348 18.2159 -146.779 -7.33894 170.197
lowerback 41.0985 0.985023 -0.195774
upperback 16.1043 -4.39684 -3.83364
thorax -2.04395 -3.75427 -2.3136
lowerneck -32.8801 -0.113645 4.35562
upperneck 15.7518 -3.70091 5.39561
head 10.3889 -0.772542 0.625319
rclavicle -5.94366e-014 -3.10104e-014
rhumerus 54.8403 -4.18945 -78.9359
rradius 33.8256
rwrist 34.91
rhand -32.9068 -12.6812
rfingers 7.12502
rthumb -6.12428 -42.5727
lclavicle -5.94366e-014 -3.10104e-014
lhumerus 64.5738 -3.29615 48.0525
lradius 46.7988
lwrist -28.6603
lhand -13.4649 12.4888
lfingers 7.12502
lthumb 12.645 42.0861
rfemur -96.2837 -7.61261 33.1028
rtibia 150.854
rfoot -33.6402 -32.1578
rtoes -29.2344
lfemur -91.9084 12.9388 -26.4194
ltibia 147.162
lfoot -11.3262 21.4551
ltoes -8.44445
